<?xml version="1.0" encoding="UTF-8" standalone="no"?>
<!-- Created with Inkscape (http://www.inkscape.org/) -->

<svg
   xmlns:dc="http://purl.org/dc/elements/1.1/"
   xmlns:cc="http://creativecommons.org/ns#"
   xmlns:rdf="http://www.w3.org/1999/02/22-rdf-syntax-ns#"
   xmlns:svg="http://www.w3.org/2000/svg"
   xmlns="http://www.w3.org/2000/svg"
   xmlns:sodipodi="http://sodipodi.sourceforge.net/DTD/sodipodi-0.dtd"
   xmlns:inkscape="http://www.inkscape.org/namespaces/inkscape"
   width="250mm"
   height="200mm"
   viewBox="0 0 250 200"
   version="1.1"
   id="svg8"
   sodipodi:docname="looking12.svg"
   inkscape:version="0.92.4 (5da689c313, 2019-01-14)">
  <defs
     id="defs2" />
  <sodipodi:namedview
     id="base"
     pagecolor="#ffffff"
     bordercolor="#666666"
     borderopacity="1.0"
     inkscape:pageopacity="0.0"
     inkscape:pageshadow="2"
     inkscape:zoom="1.1113067"
     inkscape:cx="524.90468"
     inkscape:cy="292.23507"
     inkscape:document-units="mm"
     inkscape:current-layer="layer1"
     showgrid="false"
     inkscape:snap-bbox="false"
     inkscape:bbox-nodes="true"
     inkscape:snap-object-midpoints="true"
     inkscape:snap-global="false"
     inkscape:window-width="3240"
     inkscape:window-height="2041"
     inkscape:window-x="-14"
     inkscape:window-y="-14"
     inkscape:window-maximized="1" />
  <metadata
     id="metadata5">
    <rdf:RDF>
      <cc:Work
         rdf:about="">
        <dc:format>image/svg+xml</dc:format>
        <dc:type
           rdf:resource="http://purl.org/dc/dcmitype/StillImage" />
        <dc:title></dc:title>
      </cc:Work>
    </rdf:RDF>
  </metadata>
  <g
     inkscape:label="Layer 1"
     inkscape:groupmode="layer"
     id="layer1"
     transform="translate(0,-97)">
    <ellipse
       ry="13.418155"
       rx="13.985119"
       cy="247.7489"
       cx="146.50404"
       id="ellipse4559"
       style="opacity:1;fill:#ffffff;fill-opacity:1;stroke:#000000;stroke-width:2;stroke-miterlimit:4;stroke-dasharray:none;stroke-opacity:1" />
    <ellipse
       style="opacity:1;fill:#ffffff;fill-opacity:1;stroke:#000000;stroke-width:2;stroke-miterlimit:4;stroke-dasharray:none;stroke-opacity:1"
       id="path4550"
       cx="57.527954"
       cy="247.7489"
       rx="13.985119"
       ry="13.418155" />
    <ellipse
       style="opacity:1;fill:#ffffff;fill-opacity:1;stroke:#000000;stroke-width:1;stroke-miterlimit:4;stroke-dasharray:none;stroke-opacity:1"
       id="path4550-0"
       cx="56.663776"
       cy="248.24188"
       rx="9.3190212"
       ry="8.9412231" />
    <ellipse
       style="opacity:1;fill:#ffffff;fill-opacity:1;stroke:#000000;stroke-width:1;stroke-miterlimit:4;stroke-dasharray:none;stroke-opacity:1"
       id="path4550-0-5"
       cx="146.65918"
       cy="248.19296"
       rx="9.3190212"
       ry="8.9412231" />
    <path
       style="opacity:1;fill:#ffffff;fill-opacity:1;stroke:#000000;stroke-width:2;stroke-miterlimit:4;stroke-dasharray:none;stroke-opacity:1"
       d="m 141.97498,277.04337 c 7.12857,0 5.09913,-18.2061 5.11804,-25.43802 -5e-5,-27.08583 -20.19372,-49.0432 -45.10383,-49.04315 -24.909968,-4e-5 -45.10362,21.95732 -45.103672,49.04315 0.01639,7.23126 -2.585056,26.00499 4.543044,26.00499"
       id="path4554"
       inkscape:connector-curvature="0"
       sodipodi:nodetypes="ccccc" />
    <ellipse
       style="fill:#ffffff;stroke:#000000;stroke-width:1.5004729;stroke-miterlimit:4;stroke-dasharray:none;stroke-opacity:1"
       id="ellipse4591"
       cx="-103.18563"
       cy="-235.56073"
       rx="16.593094"
       ry="19.067802"
       transform="matrix(-0.99370522,-0.11202652,0.07668232,-0.99705558,0,0)" />
    <ellipse
       transform="matrix(0.985697,-0.16852724,-0.1334317,-0.99105801,0,0)"
       ry="19.067802"
       rx="16.593094"
       cy="-263.41647"
       cx="84.590172"
       id="ellipse4534"
       style="fill:#ffffff;stroke:#000000;stroke-width:1.5004729;stroke-miterlimit:4;stroke-dasharray:none;stroke-opacity:1" />
    <path
       style="fill:none;stroke:#000000;stroke-width:2;stroke-linecap:butt;stroke-linejoin:miter;stroke-miterlimit:4;stroke-dasharray:none;stroke-opacity:1"
       d="M 63.665661,233.98303 C 44.737875,221.07374 44.737875,221.07374 44.737875,221.07374"
       id="path4593"
       inkscape:connector-curvature="0" />
    <path
       style="fill:none;stroke:#000000;stroke-width:2;stroke-linecap:butt;stroke-linejoin:miter;stroke-miterlimit:4;stroke-dasharray:none;stroke-opacity:1"
       d="M 77.258299,222.99267 C 51.177959,200.3141 51.177959,200.3141 51.177959,200.3141"
       id="path4595"
       inkscape:connector-curvature="0" />
    <path
       style="fill:none;stroke:#000000;stroke-width:1;stroke-linecap:butt;stroke-linejoin:miter;stroke-miterlimit:4;stroke-dasharray:none;stroke-opacity:1"
       d="M 95.779024,209.00755 C 89.73144,186.70696 89.73144,186.70696 89.73144,186.70696"
       id="path4599"
       inkscape:connector-curvature="0" />
    <path
       style="fill:none;stroke:#000000;stroke-width:1.5;stroke-linecap:butt;stroke-linejoin:miter;stroke-miterlimit:4;stroke-dasharray:none;stroke-opacity:1"
       d="m 117.13465,212.40934 c 9.07143,-29.86012 9.07143,-29.86012 9.07143,-29.86012"
       id="path4603"
       inkscape:connector-curvature="0" />
    <path
       style="fill:none;stroke:#000000;stroke-width:1;stroke-linecap:butt;stroke-linejoin:miter;stroke-miterlimit:4;stroke-dasharray:none;stroke-opacity:1"
       d="M 128.28495,219.96886 C 143.404,201.44803 143.404,201.44803 143.404,201.44803"
       id="path4605"
       inkscape:connector-curvature="0" />
    <path
       style="fill:none;stroke:#000000;stroke-width:2;stroke-linecap:butt;stroke-linejoin:miter;stroke-miterlimit:4;stroke-dasharray:none;stroke-opacity:1"
       d="M 138.86829,228.66231 C 161.16888,214.6772 161.16888,214.6772 161.16888,214.6772"
       id="path4607"
       inkscape:connector-curvature="0" />
    <path
       style="fill:none;stroke:#000000;stroke-width:2;stroke-linecap:butt;stroke-linejoin:miter;stroke-miterlimit:4;stroke-dasharray:none;stroke-opacity:1"
       d="m 123.27413,213.53355 c 9.45467,-21.71421 9.45467,-21.71421 9.45467,-21.71421"
       id="path4609"
       inkscape:connector-curvature="0" />
    <path
       style="fill:none;stroke:#000000;stroke-width:0.26458332px;stroke-linecap:butt;stroke-linejoin:miter;stroke-opacity:1"
       d="m 108.10119,147.6994 v 0 0"
       id="path4611"
       inkscape:connector-curvature="0" />
    <path
       style="fill:none;stroke:#000000;stroke-width:1;stroke-linecap:butt;stroke-linejoin:miter;stroke-miterlimit:4;stroke-dasharray:none;stroke-opacity:1"
       d="M 77.636269,217.70101 C 63.651173,199.55815 63.651173,199.55815 63.651173,199.55815"
       id="path4615"
       inkscape:connector-curvature="0" />
    <path
       style="fill:none;stroke:#000000;stroke-width:1.5;stroke-linecap:butt;stroke-linejoin:miter;stroke-miterlimit:4;stroke-dasharray:none;stroke-opacity:1"
       d="m 88.975493,209.76351 c -10.2053,-19.27679 -10.2053,-19.27679 -10.2053,-19.27679"
       id="path4619"
       inkscape:connector-curvature="0" />
    <path
       style="fill:none;stroke:#000000;stroke-width:1.21015918;stroke-linecap:butt;stroke-linejoin:miter;stroke-miterlimit:4;stroke-dasharray:none;stroke-opacity:1"
       d="m 105.01169,208.48406 c 1.41615,-17.28486 1.41615,-17.28486 1.41615,-17.28486"
       id="path4621"
       inkscape:connector-curvature="0" />
    <path
       style="fill:none;stroke:#000000;stroke-width:2;stroke-linecap:butt;stroke-linejoin:miter;stroke-miterlimit:4;stroke-dasharray:none;stroke-opacity:1"
       d="M 135.08853,224.88255 C 143.404,212.40934 143.404,212.40934 143.404,212.40934"
       id="path4627"
       inkscape:connector-curvature="0" />
    <path
       style="fill:none;stroke:#000000;stroke-width:2;stroke-linecap:butt;stroke-linejoin:miter;stroke-miterlimit:4;stroke-dasharray:none;stroke-opacity:1"
       d="M 98.326182,207.28765 C 95.499727,175.19769 95.499727,175.19769 95.499727,175.19769"
       id="path4629"
       inkscape:connector-curvature="0" />
    <path
       style="fill:none;stroke:#000000;stroke-width:1.35422122;stroke-linecap:butt;stroke-linejoin:miter;stroke-miterlimit:4;stroke-dasharray:none;stroke-opacity:1"
       d="m 109.41474,209.01669 c 4.47852,-31.20131 4.47852,-31.20131 4.47852,-31.20131"
       id="path4631"
       inkscape:connector-curvature="0" />
    <path
       style="fill:none;stroke:#000000;stroke-width:1;stroke-linecap:butt;stroke-linejoin:miter;stroke-miterlimit:4;stroke-dasharray:none;stroke-opacity:1"
       d="m 64.785101,227.15041 c -8.693452,-4.15774 -8.693452,-4.15774 -8.693452,-4.15774"
       id="path4635"
       inkscape:connector-curvature="0" />
    <path
       style="fill:none;stroke:#000000;stroke-width:1.39999998;stroke-linecap:butt;stroke-linejoin:miter;stroke-miterlimit:4;stroke-dasharray:none;stroke-opacity:1"
       d="M 70.832722,224.1266 C 50.422007,209.38553 50.422007,209.38553 50.422007,209.38553"
       id="path4637"
       inkscape:connector-curvature="0" />
    <ellipse
       ry="10.961308"
       rx="7.5595236"
       cy="275.23154"
       cx="166.87675"
       id="ellipse4567"
       style="opacity:1;fill:#ffffff;fill-opacity:1;stroke:#000000;stroke-width:2;stroke-miterlimit:4;stroke-dasharray:none;stroke-opacity:1" />
    <ellipse
       style="opacity:1;fill:#ffffff;fill-opacity:1;stroke:#000000;stroke-width:2;stroke-miterlimit:4;stroke-dasharray:none;stroke-opacity:1"
       id="ellipse4569"
       cx="182.86516"
       cy="275.23154"
       rx="7.5595236"
       ry="10.961308" />
    <ellipse
       ry="10.961308"
       rx="7.5595236"
       cy="275.23154"
       cx="150.88834"
       id="ellipse4571"
       style="opacity:1;fill:#ffffff;fill-opacity:1;stroke:#000000;stroke-width:2;stroke-miterlimit:4;stroke-dasharray:none;stroke-opacity:1" />
    <ellipse
       style="opacity:1;fill:#ffffff;fill-opacity:1;stroke:#000000;stroke-width:2;stroke-miterlimit:4;stroke-dasharray:none;stroke-opacity:1"
       id="path4561"
       cx="36.89045"
       cy="275.42053"
       rx="7.5595236"
       ry="10.961308" />
    <ellipse
       ry="10.961308"
       rx="7.5595236"
       cy="275.42053"
       cx="52.878838"
       id="ellipse4563"
       style="opacity:1;fill:#ffffff;fill-opacity:1;stroke:#000000;stroke-width:2;stroke-miterlimit:4;stroke-dasharray:none;stroke-opacity:1" />
    <ellipse
       style="opacity:1;fill:#ffffff;fill-opacity:1;stroke:#000000;stroke-width:2;stroke-miterlimit:4;stroke-dasharray:none;stroke-opacity:1"
       id="ellipse4565"
       cx="20.902054"
       cy="275.42053"
       rx="7.5595236"
       ry="10.961308" />
    <path
       style="fill:#000000;fill-opacity:1;stroke:none;stroke-width:2.29535866;stroke-miterlimit:4;stroke-dasharray:none;stroke-opacity:1"
       d="m 84.723187,252.47494 a 9.3549174,8.8658901 0 0 0 -9.354686,8.86567 9.3549174,8.8658901 0 0 0 0.0108,0.29542 13.918858,13.298701 76.642127 0 0 9.009459,4.42307 13.918858,13.298701 76.642127 0 0 9.582206,-3.45411 9.3549174,8.8658901 0 0 0 0.10731,-1.26438 9.3549174,8.8658901 0 0 0 -9.355109,-8.86567 z"
       id="path5292"
       inkscape:connector-curvature="0" />
    <path
       style="fill:none;stroke:#000000;stroke-width:2;stroke-linecap:butt;stroke-linejoin:miter;stroke-miterlimit:4;stroke-dasharray:none;stroke-opacity:1"
       d="M 84.050033,215.60785 C 68.387681,183.13046 68.387681,183.13046 68.387681,183.13046"
       id="path4619-5"
       inkscape:connector-curvature="0" />
    <path
       style="fill:#000000;fill-opacity:1;stroke:none;stroke-width:2.29535866;stroke-miterlimit:4;stroke-dasharray:none;stroke-opacity:1"
       d="m 118.07965,252.05727 a 9.3549176,8.8658901 0 0 0 -9.35477,8.86567 9.3549176,8.8658901 0 0 0 0.0108,0.29542 13.918858,13.298701 76.642127 0 0 9.00954,4.42307 13.918858,13.298701 76.642127 0 0 9.58226,-3.45411 9.3549176,8.8658901 0 0 0 0.10731,-1.26438 9.3549176,8.8658901 0 0 0 -9.35516,-8.86567 z"
       id="path5292-0"
       inkscape:connector-curvature="0" />
    <ellipse
       style="fill:#ffffff;fill-opacity:1;stroke:#000000;stroke-width:1.5;stroke-miterlimit:4;stroke-dasharray:none;stroke-opacity:1"
       id="path4536"
       cx="101.04824"
       cy="263.12698"
       rx="8.1936855"
       ry="7.3822966" />
  </g>
</svg>
